<svg xmlns="http://www.w3.org/2000/svg" viewBox="0 0 398.61 366.44"><defs><style>.cls-1{fill:#fff;}</style></defs><title>Asset 1</title><g id="Layer_2" data-name="Layer 2"><g id="Neuro"><path class="cls-1" d="M388.13,336a10.36,10.36,0,0,0-5.35,1.49l-33.86-19.55,16.17-6.73a3.5,3.5,0,0,0,.47-6.22l-21.62-13.15a7.48,7.48,0,1,0-7.47,7.54,7.41,7.41,0,0,0,4.22-1.32L356,307.4l-14.75,6.13-37.54-21.67,27.79-13.77a3.49,3.49,0,0,0,.29-6.11l-14-8.68a7.49,7.49,0,1,0-3.07,6.33l8,5-26.32,13-39.7-22.92,7.09-4.52,19.93,11.53c0,.11,0,.22,0,.33a7.48,7.48,0,1,0,7.48-7.47,7.39,7.39,0,0,0-3.9,1.11l-21.82-12.62a3.51,3.51,0,0,0-3.63.08l-12,7.62-16.37-9.45L260,236.27l37.51,19a3.5,3.5,0,0,0,1.58.38,3.45,3.45,0,0,0,1.57-.37l25.08-12.63a7.47,7.47,0,1,0-3.19-6.23l-23.45,11.81-31.83-16.15,36-20.59a7.38,7.38,0,0,0,3.68,1,7.48,7.48,0,1,0-7.47-7.48c0,.2,0,.39,0,.58l-41.29,23.65h0l-13.66,7.8-9.39-5.68a7.34,7.34,0,0,0,0-.81,7.49,7.49,0,1,0-4,6.61l6.37,3.85-11,6.26L207,236l-5,8.66,10.92,6.3V267.6a3.51,3.51,0,0,0,1.82,3.07l22.88,12.48a7.47,7.47,0,1,0,3.26-6.19l-21-11.44V255l39.39,22.74v28.84L233.06,289.7a3.5,3.5,0,0,0-5.39,2.95V341.4a7.48,7.48,0,1,0,7,0V299.06l24.61,15.83v37.47a7.47,7.47,0,1,0,7,0V281.77l25,14.41V341.4a7.47,7.47,0,1,0,7,0V300.22l22.71,13.11v20.9a3.51,3.51,0,0,0,1.47,2.85l28.29,20.24a8.08,8.08,0,0,0-.18,1.64,7.48,7.48,0,1,0,7.47-7.48,7.37,7.37,0,0,0-2.7.52l-27.35-19.57V317.37l49.73,28.71c0,.14,0,.27,0,.4A10.48,10.48,0,1,0,388.13,336Zm-51.66-40.62a3.48,3.48,0,1,1,3.47-3.48A3.48,3.48,0,0,1,336.47,295.38Zm-26.11-28.31a3.48,3.48,0,1,1,3.47-3.47A3.48,3.48,0,0,1,310.36,267.07Zm-19.11,1.53a3.48,3.48,0,1,1-3.48,3.47A3.47,3.47,0,0,1,291.25,268.6ZM330,233.08a3.48,3.48,0,1,1-2.68,5.67l-.69-1.37a3.61,3.61,0,0,1-.11-.82A3.48,3.48,0,0,1,330,233.08Zm-23.11-31.54a3.48,3.48,0,1,1-3.47,3.48A3.48,3.48,0,0,1,306.88,201.54Zm-82.7,29a3.48,3.48,0,1,1,3.48,3.48A3.48,3.48,0,0,1,224.18,230.56Zm20.88,49.1a3.48,3.48,0,1,1-3.47,3.48A3.48,3.48,0,0,1,245.06,279.66Zm-13.89,71.82a3.48,3.48,0,1,1,3.48-3.48A3.48,3.48,0,0,1,231.17,351.48Zm31.61,11a3.48,3.48,0,1,1,3.47-3.48A3.48,3.48,0,0,1,262.78,362.44Zm32-11A3.48,3.48,0,1,1,298.2,348,3.48,3.48,0,0,1,294.73,351.48Zm63.26,4a3.48,3.48,0,1,1-3.47,3.48A3.48,3.48,0,0,1,358,355.48Zm30.14-4.13a4.87,4.87,0,1,1,4.87-4.87A4.87,4.87,0,0,1,388.13,351.35Z"/><polygon class="cls-1" points="265.66 157.05 265.66 163.16 277.94 163.17 263.77 171.02 237.81 146.98 230.3 106.55 247.92 108.71 247.92 108.72 236 113.81 238.4 119.43 260 110.19 260.26 110.22 260.28 110.07 265.66 107.77 260.99 104.28 260.99 104.27 260.98 104.27 241.94 89.99 238.28 94.88 248.65 102.65 248.63 102.75 230.19 100.49 235.03 77.21 238.76 88.71 244.57 86.82 235.42 58.63 215.57 80.64 220.1 84.73 228.17 75.78 222.52 102.97 230.7 147 209.47 159.66 209.47 28.65 220.09 47.03 228.75 42.02 204.47 0 180.2 42.02 188.86 47.03 199.47 28.65 199.47 137.52 172.41 119.56 167.57 96.19 175.42 105.31 180.06 101.33 160.72 78.86 150.92 106.83 156.68 108.85 160.68 97.44 165.32 119.85 135.23 136.29 141.08 125.25 135.68 122.39 121.8 148.58 151.42 147.52 151.2 141.42 139.69 141.83 169.1 125.76 197.69 144.74 182.95 168.58 171.53 160.59 184.04 162.14 184.79 156.08 155.38 152.43 166.91 179.73 172.54 177.36 168.03 166.68 179.27 174.55 166.6 195.05 149.64 195.72 160.7 189.3 157.63 184.02 131.99 198.9 157.69 213.67 160.74 208.38 150.82 202.68 166.54 202.06 174.02 216.1 163.95 210.15 160.84 215.41 179.54 226.46 179.79 226.93 180.07 226.78 186.36 230.5 186.68 200.85 180.57 200.79 180.44 213.26 172.63 198.6 199.47 155.16 199.47 240.31 209.47 240.31 209.47 202.55 228.5 191.59 223.07 201.94 228.48 204.78 242.25 178.53 212.63 179.71 212.88 185.81 225.15 185.32 225.2 185.41 209.47 194.47 209.47 167.81 234.13 153.11 259.28 176.4 252.87 198.01 249.83 186.08 243.91 187.59 251.23 216.31 272.45 195.62 268.19 191.24 259.73 199.49 266.2 177.68 281.12 169.41 275.18 179.68 280.47 182.74 295.3 157.07 265.66 157.05"/><path class="cls-1" d="M208.8,237.82A5,5,0,0,0,202,236l-51.24,29.58L142.29,264l3.57-19,18.38-10.45a3.5,3.5,0,0,0-3.46-6.08l-16.33,9.28-8.19-20a3.5,3.5,0,1,0-6.47,2.65l9.3,22.71-3.69,19.65-17.81-3.22L114.4,231.2l-2.32-32.52a3.5,3.5,0,0,0-7,.5l2,28.15L85.88,223.8a3.5,3.5,0,0,0-1.15,6.9l23,3.84,2.9,25.8-21.19,8.91L79.58,247a3.5,3.5,0,1,0-6.39,2.84l9.65,21.76-27.28,8.53a3.5,3.5,0,0,0,1,6.84,3.37,3.37,0,0,0,1-.16l31-9.7.15-.06L89,277l25.81-10.85L141.35,271,58.48,318.83l-6.74-10.32-4.5-21A3.5,3.5,0,1,0,40.39,289l3.88,18.06-15.42,2.64a3.5,3.5,0,0,0,1.19,6.9l16.74-2.87,5.63,8.62L2.5,351.15A5,5,0,0,0,5,360.48a4.93,4.93,0,0,0,2.49-.67l23.14-13.36.78,9.33a3.51,3.51,0,0,0,3.49,3.2h.3a3.5,3.5,0,0,0,3.19-3.78l-1.07-12.6,62.32-36,5,12.8L93.23,334.49l-25.8,9.34a3.5,3.5,0,0,0,1.2,6.79,3.56,3.56,0,0,0,1.19-.21L94,341.66l10.13,15.72a3.5,3.5,0,0,0,5.88-3.79l-10.31-16,10.49-13.89,22.43,2.85.45,0a3.5,3.5,0,0,0,.43-7l-22.37-2.84-5.3-13.69,67.49-39v20.62l-21.6,30.51.07.11-16.51,26a3.5,3.5,0,0,0,1.09,4.83,3.46,3.46,0,0,0,1.87.54,3.5,3.5,0,0,0,3-1.62L156,321.78l15.26,23.38a3.51,3.51,0,0,0,2.94,1.58,3.46,3.46,0,0,0,1.91-.57,3.5,3.5,0,0,0,1-4.84l-16.94-25.94,17.62-24.9,19.42,11.58a3.44,3.44,0,0,0,1.79.5,3.5,3.5,0,0,0,1.8-6.51l-20.49-12.22V260.06L207,244.65A5,5,0,0,0,208.8,237.82Z"/></g></g></svg>